<svg width="261" height="261" viewBox="0 0 261 261" fill="none" xmlns="http://www.w3.org/2000/svg">
<g clip-path="url(#clip0_226:16)">
<path d="M130.049 260.098C201.873 260.098 260.098 201.873 260.098 130.049C260.098 58.225 201.873 0 130.049 0C58.225 0 0 58.225 0 130.049C0 201.873 58.225 260.098 130.049 260.098Z" fill="#335EF7"/>
<path d="M119.424 148.501C127.422 153.216 133.77 153.216 138.466 148.501C147.698 139.232 155.835 122.968 162.879 99.7093C166.026 93.4182 173.681 90.8683 179.975 94.0138C182.442 95.2461 184.441 97.2446 185.674 99.7093L220.083 168.485" stroke="white" stroke-width="23" stroke-dasharray="6 6"/>
<path d="M40.0151 168.485L74.424 99.7093C77.5714 93.4182 85.226 90.8683 91.5209 94.0138C93.9871 95.2461 95.9868 97.2446 97.2199 99.7093C109.576 125.936 118.298 144.137 123.384 154.312C125.908 159.362 131.575 156.868 140.385 146.829" stroke="white" stroke-width="23"/>
</g>
<defs>
<clipPath id="clip0_226:16">
<rect width="260.098" height="260.098" fill="white"/>
</clipPath>
</defs>
</svg>
